<?xml version="1.0" encoding="UTF-8"?>
<svg xmlns="http://www.w3.org/2000/svg" width="1000" height="1000" viewBox="0 0 1000 1000" fill="none">
  <!-- Golden Ratio Spirals Pattern -->
  <g opacity="0.05" stroke="currentColor">
    <!-- Main Spiral -->
    <path d="M500 500 
      C 500 310 690 310 690 500 
      C 690 690 500 690 500 500
      Z" stroke-width="2"/>
    
    <path d="M500 500 
      C 500 380 620 380 620 500 
      C 620 620 500 620 500 500
      Z" stroke-width="2"/>
      
    <path d="M500 500 
      C 500 420 580 420 580 500 
      C 580 580 500 580 500 500
      Z" stroke-width="2"/>
    
    <path d="M500 500 
      C 500 450 550 450 550 500 
      C 550 550 500 550 500 500
      Z" stroke-width="2"/>
    
    <path d="M500 500 
      C 500 470 530 470 530 500 
      C 530 530 500 530 500 500
      Z" stroke-width="2"/>
    
    <!-- Horizontal Golden Ratio Guides -->
    <line x1="0" y1="38.2" x2="1000" y2="38.2" stroke-width="1"/>
    <line x1="0" y1="61.8" x2="1000" y2="61.8" stroke-width="1"/>
    <line x1="0" y1="100" x2="1000" y2="100" stroke-width="1"/>
    <line x1="0" y1="161.8" x2="1000" y2="161.8" stroke-width="1"/>
    <line x1="0" y1="261.8" x2="1000" y2="261.8" stroke-width="1"/>
    <line x1="0" y1="423.6" x2="1000" y2="423.6" stroke-width="1"/>
    <line x1="0" y1="500" x2="1000" y2="500" stroke-width="1"/>
    <line x1="0" y1="576.4" x2="1000" y2="576.4" stroke-width="1"/>
    <line x1="0" y1="738.2" x2="1000" y2="738.2" stroke-width="1"/>
    <line x1="0" y1="838.2" x2="1000" y2="838.2" stroke-width="1"/>
    <line x1="0" y1="900" x2="1000" y2="900" stroke-width="1"/>
    <line x1="0" y1="938.2" x2="1000" y2="938.2" stroke-width="1"/>
    <line x1="0" y1="961.8" x2="1000" y2="961.8" stroke-width="1"/>
    
    <!-- Vertical Golden Ratio Guides -->
    <line x1="38.2" y1="0" x2="38.2" y2="1000" stroke-width="1"/>
    <line x1="61.8" y1="0" x2="61.8" y2="1000" stroke-width="1"/>
    <line x1="100" y1="0" x2="100" y2="1000" stroke-width="1"/>
    <line x1="161.8" y1="0" x2="161.8" y2="1000" stroke-width="1"/>
    <line x1="261.8" y1="0" x2="261.8" y2="1000" stroke-width="1"/>
    <line x1="423.6" y1="0" x2="423.6" y2="1000" stroke-width="1"/>
    <line x1="500" y1="0" x2="500" y2="1000" stroke-width="1"/>
    <line x1="576.4" y1="0" x2="576.4" y2="1000" stroke-width="1"/>
    <line x1="738.2" y1="0" x2="738.2" y2="1000" stroke-width="1"/>
    <line x1="838.2" y1="0" x2="838.2" y2="1000" stroke-width="1"/>
    <line x1="900" y1="0" x2="900" y2="1000" stroke-width="1"/>
    <line x1="938.2" y1="0" x2="938.2" y2="1000" stroke-width="1"/>
    <line x1="961.8" y1="0" x2="961.8" y2="1000" stroke-width="1"/>
    
    <!-- Golden Ratio Squares -->
    <rect x="261.8" y="261.8" width="161.8" height="161.8" fill="none" stroke-width="1"/>
    <rect x="423.6" y="261.8" width="100" height="100" fill="none" stroke-width="1"/>
    <rect x="523.6" y="261.8" width="61.8" height="61.8" fill="none" stroke-width="1"/>
    <rect x="523.6" y="323.6" width="38.2" height="38.2" fill="none" stroke-width="1"/>
    <rect x="561.8" y="323.6" width="23.6" height="23.6" fill="none" stroke-width="1"/>
    
    <!-- Additional Golden Spirals -->
    <path d="M700 300 
      C 700 200 800 200 800 300 
      C 800 400 700 400 700 300
      Z" stroke-width="1.5"/>
    
    <path d="M300 700 
      C 300 600 400 600 400 700 
      C 400 800 300 800 300 700
      Z" stroke-width="1.5"/>
    
    <path d="M150 150 
      C 150 100 200 100 200 150 
      C 200 200 150 200 150 150
      Z" stroke-width="1.5"/>
    
    <path d="M800 800 
      C 800 750 850 750 850 800 
      C 850 850 800 850 800 800
      Z" stroke-width="1.5"/>
  </g>
</svg>