<?xml version="1.0" encoding="UTF-8"?>
<svg xmlns="http://www.w3.org/2000/svg" width="1440" height="320" viewBox="0 0 1440 320" fill="none">
  <path d="M0,192L48,197.3C96,203,192,213,288,229.3C384,245,480,267,576,250.7C672,235,768,181,864,181.3C960,181,1056,235,1152,234.7C1248,235,1344,181,1392,154.7L1440,128L1440,320L1392,320C1344,320,1248,320,1152,320C1056,320,960,320,864,320C768,320,672,320,576,320C480,320,384,320,288,320C192,320,96,320,48,320L0,320Z" fill="url(#paint0_linear)"/>
  
  <defs>
    <linearGradient id="paint0_linear" x1="720" y1="128" x2="720" y2="320" gradientUnits="userSpaceOnUse">
      <stop stop-color="#2563EB" stop-opacity="0.3"/>
      <stop offset="1" stop-color="#2563EB" stop-opacity="0.1"/>
    </linearGradient>
  </defs>
</svg>